  <svg xmlns="http://www.w3.org/2000/svg" xml:space="preserve" viewBox="0 0 512 512"><path d="M418.02 148.26C389.457 42.187 280.187-21.326 173.765 6.57 66.905 34.584 2.76 144.312 30.773 251.172l.274 1.042 56.6 146.103V512h228.262v-88.768H430.04v-92.939l57.759-14.44L418.02 148.26zm-26.024 152.329v84.598H277.865v88.768H125.69v-82.751L67.311 240.509c-10.58-41.433-4.44-84.699 17.333-121.943 21.951-37.549 57.029-64.254 98.77-75.197 41.743-10.941 85.409-4.878 122.957 17.07 37.548 21.951 64.253 57.027 75.196 98.769l.333 1.273 53.787 129.183-43.691 10.925z"/><path d="m297.656 147.64-26.9 26.9 32.201 32.202-32.201 32.202 26.9 26.901 59.104-59.103zM186.062 174.54l-26.901-26.9-59.103 59.102 59.103 59.103 26.901-26.901-32.202-32.202zM227.125 120.51l-36.309 172.464h38.878l36.308-172.464z"/>
    <style>
        path { fill: #000; }
        @media (prefers-color-scheme: dark) {
            path { fill: #FFF; }
        }
    </style>
</svg>
